<svg version="1.1" id="Layer_1" xmlns="http://www.w3.org/2000/svg" xmlns:xlink="http://www.w3.org/1999/xlink" x="0px" y="0px" width="100%" viewBox="0 0 1024 1024" enable-background="new 0 0 1024 1024" xml:space="preserve">
<path fill="#1E3A8A" d="&#xA;M271.313751,540.781616 &#xA;&#x9;C267.611481,540.625671 268.824249,537.990479 268.804291,536.334351 &#xA;&#x9;C268.673737,525.503845 268.602539,514.669128 268.786743,503.840424 &#xA;&#x9;C268.846100,500.350952 267.668091,498.347839 264.505646,496.869507 &#xA;&#x9;C256.206360,492.989868 248.052689,488.799805 239.800583,484.817139 &#xA;&#x9;C238.211273,484.050079 236.674164,482.821686 234.523178,483.346344 &#xA;&#x9;C232.361450,489.515625 234.197174,495.854919 233.957153,502.106964 &#xA;&#x9;C233.716797,508.367401 233.904388,514.644226 233.904388,522.185303 &#xA;&#x9;C227.931366,519.314575 223.265137,516.341187 218.166550,514.777771 &#xA;&#x9;C208.395203,511.781616 205.280136,505.761353 206.490662,495.847076 &#xA;&#x9;C207.412872,488.294250 206.686157,480.538025 206.655792,472.872467 &#xA;&#x9;C206.648712,471.083710 207.093628,468.989929 205.043518,467.970825 &#xA;&#x9;C195.858902,463.405334 186.634613,458.919647 177.511185,454.447571 &#xA;&#x9;C175.636368,456.740417 176.251236,458.820526 176.249374,460.730194 &#xA;&#x9;C176.217621,493.392670 176.241669,526.055176 176.251602,558.717651 &#xA;&#x9;C176.253708,565.684265 176.087936,565.810913 169.151810,564.245605 &#xA;&#x9;C168.827011,564.172363 168.502441,564.097656 168.179581,564.016418 &#xA;&#x9;C158.693039,561.629883 158.694946,561.629761 158.694611,551.773804 &#xA;&#x9;C158.693359,514.611877 158.757355,477.449646 158.598160,440.288391 &#xA;&#x9;C158.579803,436.002411 160.011475,433.754028 163.846069,431.890076 &#xA;&#x9;C200.252258,414.193817 236.582672,396.341217 272.886475,378.435516 &#xA;&#x9;C275.824432,376.986450 278.226532,376.750793 281.289093,378.254639 &#xA;&#x9;C317.473877,396.023132 353.688660,413.732056 390.004852,431.229706 &#xA;&#x9;C394.708466,433.495941 396.406647,436.222076 396.383698,441.510406 &#xA;&#x9;C396.176208,489.336670 396.198669,537.164612 396.393066,584.991089 &#xA;&#x9;C396.413025,589.900818 394.840546,592.445190 390.417389,594.465027 &#xA;&#x9;C378.753754,599.791016 367.319031,605.618042 355.786194,611.231262 &#xA;&#x9;C354.176666,612.014709 352.637390,613.092224 349.840881,612.832825 &#xA;&#x9;C349.840881,597.244019 349.840881,581.726318 349.840881,565.360352 &#xA;&#x9;C341.171906,567.938477 334.567993,572.361145 327.302429,575.610474 &#xA;&#x9;C327.762878,576.102478 327.943512,576.482666 328.181976,576.523254 &#xA;&#x9;C338.319244,578.249329 338.322205,578.245667 338.327209,588.649536 &#xA;&#x9;C338.331543,597.648376 338.251831,606.648315 338.376312,615.645447 &#xA;&#x9;C338.415588,618.483154 337.531860,620.120728 334.836121,621.418884 &#xA;&#x9;C316.828644,630.091248 298.898621,638.925171 280.984070,647.788757 &#xA;&#x9;C278.703247,648.917175 276.692383,649.110229 274.373352,647.975220 &#xA;&#x9;C247.142441,634.647705 219.887039,621.370361 192.647736,608.059998 &#xA;&#x9;C192.087967,607.786499 191.643814,607.276306 190.604279,606.441956 &#xA;&#x9;C197.292999,604.499207 203.859055,605.337952 209.944977,603.657227 &#xA;&#x9;C217.643814,601.531189 224.094620,604.054688 230.781586,607.509705 &#xA;&#x9;C242.886398,613.764038 255.275208,619.468811 267.485321,625.373962 &#xA;&#x9;C269.394958,623.674866 268.685913,621.718994 268.700165,620.000732 &#xA;&#x9;C268.773163,611.169189 268.941956,602.329285 268.634674,593.507629 &#xA;&#x9;C268.486298,589.249390 269.583191,586.560913 273.869843,585.276428 &#xA;&#x9;C277.790405,584.101624 281.154480,581.400391 286.150757,580.436951 &#xA;&#x9;C286.150757,595.501709 286.150757,610.170776 286.150757,626.036743 &#xA;&#x9;C295.846100,621.219666 304.445160,617.003906 312.982605,612.666809 &#xA;&#x9;C315.184021,611.548401 314.677155,609.231812 314.684174,607.282898 &#xA;&#x9;C314.720215,597.284302 314.853699,587.282471 314.645844,577.288147 &#xA;&#x9;C314.550720,572.714355 316.135376,569.869934 320.386047,567.897888 &#xA;&#x9;C330.509552,563.201233 340.438049,558.086182 350.492462,553.237915 &#xA;&#x9;C357.043762,550.078857 359.297058,551.545105 359.320221,558.847656 &#xA;&#x9;C359.351868,568.817200 359.328125,578.786865 359.328125,590.107361 &#xA;&#x9;C365.902496,586.771179 371.620728,583.953003 377.245117,580.958557 &#xA;&#x9;C378.711151,580.178040 378.671417,578.430054 378.671326,576.907288 &#xA;&#x9;C378.668610,537.079163 378.666656,497.251068 378.643005,457.422974 &#xA;&#x9;C378.642517,456.639404 378.384735,455.855957 378.260223,455.147614 &#xA;&#x9;C376.369720,454.498993 375.133728,455.540558 373.838684,456.170013 &#xA;&#x9;C347.020935,469.205109 320.284515,482.411316 293.344788,495.188843 &#xA;&#x9;C287.869904,497.785583 285.604584,500.885376 286.127441,506.973755 &#xA;&#x9;C286.695648,513.590942 286.107483,520.299316 286.323914,526.958191 &#xA;&#x9;C286.440582,530.547119 285.306030,532.963318 282.064056,534.637024 &#xA;&#x9;C278.519318,536.467041 275.146057,538.629211 271.313751,540.781616 &#xA;M277.338196,449.906616 &#xA;&#x9;C266.178650,455.340454 255.019104,460.774323 242.749130,466.748901 &#xA;&#x9;C254.621552,472.663605 265.282959,477.990448 275.963623,483.278534 &#xA;&#x9;C277.482025,484.030334 278.877197,483.266418 280.233185,482.599182 &#xA;&#x9;C307.561127,469.151367 334.893677,455.712891 362.204620,442.230621 &#xA;&#x9;C363.481354,441.600342 365.108398,441.311310 365.713165,439.743286 &#xA;&#x9;C365.411804,438.549103 364.387146,438.199127 363.534149,437.777802 &#xA;&#x9;C354.282440,433.208405 344.976227,428.747864 335.763947,424.100891 &#xA;&#x9;C333.107849,422.761078 330.995300,423.682251 328.706635,424.802002 &#xA;&#x9;C311.812225,433.067719 294.903839,441.304749 277.338196,449.906616 &#xA;M282.523773,397.951752 &#xA;&#x9;C279.267883,395.868439 276.205780,396.083282 272.684692,397.824280 &#xA;&#x9;C246.124268,410.957275 219.470642,423.901703 192.871826,436.957367 &#xA;&#x9;C191.361130,437.698883 189.285294,438.009796 188.934357,440.503937 &#xA;&#x9;C196.101379,444.023743 203.312317,447.426636 210.381119,451.102783 &#xA;&#x9;C213.328262,452.635498 215.807938,452.620789 218.807434,451.143494 &#xA;&#x9;C245.539825,437.977997 272.342468,424.955231 299.104584,411.849915 &#xA;&#x9;C300.500244,411.166443 302.365753,410.938629 303.046661,408.346832 &#xA;&#x9;C296.478363,405.019043 289.840515,401.656036 282.523773,397.951752 &#xA;z"></path>
<path fill="#F97316" d="&#xA;M170.415436,571.560303 &#xA;&#x9;C187.781113,574.517212 204.483047,572.216064 220.816406,568.138062 &#xA;&#x9;C257.674194,558.935608 290.274902,541.433411 318.480133,515.890442 &#xA;&#x9;C324.364929,510.561127 324.303406,510.591797 318.433258,504.990540 &#xA;&#x9;C316.197906,502.857666 313.451599,501.134918 311.603088,497.195007 &#xA;&#x9;C330.914856,492.012573 349.960968,487.489349 370.485596,482.918884 &#xA;&#x9;C366.836609,502.834991 363.396942,521.608521 359.891754,540.739868 &#xA;&#x9;C354.588135,539.307007 352.224182,535.658875 349.353943,532.859863 &#xA;&#x9;C346.273987,529.856445 344.014740,530.029114 340.941467,532.907715 &#xA;&#x9;C307.543671,564.189575 268.049744,583.996521 223.660522,594.112122 &#xA;&#x9;C201.723404,599.111206 179.465897,600.582092 157.315948,595.267090 &#xA;&#x9;C141.931473,591.575562 129.002396,584.273254 123.445190,568.143188 &#xA;&#x9;C119.535683,556.795654 122.372742,545.984192 127.123116,535.699097 &#xA;&#x9;C132.281143,524.531372 140.446030,515.424500 148.963867,506.680847 &#xA;&#x9;C149.531723,506.097900 150.173935,505.516815 151.492035,505.922699 &#xA;&#x9;C151.667709,508.059570 149.903030,509.314850 148.818985,510.752838 &#xA;&#x9;C143.105667,518.331543 138.874054,526.629517 137.533676,536.051880 &#xA;&#x9;C135.423859,550.882812 143.608170,563.077209 158.878021,568.719299 &#xA;&#x9;C162.493073,570.055054 166.184448,570.966370 170.415436,571.560303 &#xA;z"></path>
<path fill="#1E3A8A" d="&#xA;M711.041748,491.001648 &#xA;&#x9;C711.083313,485.676575 711.094421,480.850525 711.176636,476.025665 &#xA;&#x9;C711.216858,473.664093 711.819092,471.691437 714.807678,471.780945 &#xA;&#x9;C728.758972,472.198822 742.780945,470.532471 756.659607,472.760803 &#xA;&#x9;C767.016724,474.423676 772.727234,479.855225 773.982666,488.706329 &#xA;&#x9;C774.919312,495.309479 772.073303,500.668640 767.179932,505.742615 &#xA;&#x9;C772.299194,509.019318 775.625732,513.281860 776.829468,519.136597 &#xA;&#x9;C778.616028,527.826660 774.959290,535.612549 766.888367,539.268616 &#xA;&#x9;C762.609192,541.207031 758.082092,542.293579 753.365662,542.312866 &#xA;&#x9;C741.051514,542.363159 728.734436,542.211182 716.424194,542.442139 &#xA;&#x9;C712.220947,542.520996 710.927246,540.973694 710.969055,536.930542 &#xA;&#x9;C711.125732,521.788818 711.037231,506.644501 711.041748,491.001648 &#xA;M757.350830,525.761047 &#xA;&#x9;C760.479492,519.397766 758.814331,515.454346 752.204590,513.833801 &#xA;&#x9;C747.951721,512.791077 743.597229,513.375305 739.291565,513.344238 &#xA;&#x9;C728.245667,513.264343 728.344055,513.311646 729.100342,524.420837 &#xA;&#x9;C729.322510,527.683044 730.727051,528.837097 733.789856,528.664917 &#xA;&#x9;C735.778442,528.553162 737.781494,528.712585 739.772095,528.621155 &#xA;&#x9;C745.504639,528.358093 751.470886,529.742493 757.350830,525.761047 &#xA;M754.823853,488.589691 &#xA;&#x9;C749.972656,484.661865 744.163513,485.487000 738.581360,485.425232 &#xA;&#x9;C728.592712,485.314667 728.592102,485.386047 729.184509,495.354889 &#xA;&#x9;C729.204163,495.686737 729.223083,496.019379 729.221985,496.351624 &#xA;&#x9;C729.214417,498.598267 730.309814,499.729828 732.576965,499.714661 &#xA;&#x9;C738.229065,499.676849 743.910645,499.994995 749.525085,499.518890 &#xA;&#x9;C755.205322,499.037231 757.511108,494.460114 754.823853,488.589691 &#xA;z"></path>
<path fill="#1E3A8A" d="&#xA;M428.678589,512.000000 &#xA;&#x9;C428.682617,500.180725 428.824615,488.858978 428.619324,477.543549 &#xA;&#x9;C428.543488,473.363312 429.625977,471.441345 434.203186,471.686157 &#xA;&#x9;C445.982117,472.316132 457.844666,470.698822 469.573944,472.742035 &#xA;&#x9;C491.405945,476.545166 494.199768,497.269989 488.027771,509.660156 &#xA;&#x9;C482.822021,520.110718 472.835999,522.313293 462.427582,523.193604 &#xA;&#x9;C458.625854,523.515198 454.771576,523.362183 450.947784,523.232971 &#xA;&#x9;C447.491577,523.116150 446.152832,524.648987 446.297943,528.031372 &#xA;&#x9;C446.447662,531.520142 446.232910,535.023315 446.331818,538.515869 &#xA;&#x9;C446.409332,541.254761 445.289368,542.433777 442.511414,542.374634 &#xA;&#x9;C425.637421,542.015381 429.068451,544.823792 428.703949,529.478455 &#xA;&#x9;C428.569580,523.821899 428.680054,518.159668 428.678589,512.000000 &#xA;M470.657715,504.049133 &#xA;&#x9;C475.354187,495.555237 472.179291,488.261810 462.695374,486.725342 &#xA;&#x9;C458.318207,486.016205 453.754181,486.439423 449.274414,486.394104 &#xA;&#x9;C447.173035,486.372803 446.346863,487.610229 446.349945,489.584290 &#xA;&#x9;C446.357666,494.568787 446.347382,499.553253 446.353729,504.537750 &#xA;&#x9;C446.355499,505.927979 446.593994,507.677155 448.130737,507.677063 &#xA;&#x9;C455.597107,507.676636 463.442078,510.065918 470.657715,504.049133 &#xA;z"></path>
<path fill="#1E3A8A" d="&#xA;M501.865662,496.932373 &#xA;&#x9;C514.631958,483.559113 538.340820,483.490479 549.019714,496.509766 &#xA;&#x9;C556.532898,505.669556 557.702332,519.589172 551.816101,529.793274 &#xA;&#x9;C546.177612,539.567871 533.076965,545.110962 520.583862,543.008057 &#xA;&#x9;C497.703796,539.156921 488.133301,516.017517 501.865662,496.932373 &#xA;M535.507446,523.936279 &#xA;&#x9;C536.287964,522.115906 537.272766,520.353821 537.812012,518.464661 &#xA;&#x9;C539.690613,511.884094 536.456787,504.819763 530.541260,502.255157 &#xA;&#x9;C524.688721,499.717896 518.144226,501.823883 514.959290,507.269470 &#xA;&#x9;C511.438782,513.288757 512.896362,522.360901 518.028687,526.374207 &#xA;&#x9;C522.914978,530.195129 530.159424,529.421204 535.507446,523.936279 &#xA;z"></path>
<path fill="#1E3A8A" d="&#xA;M680.651855,505.257507 &#xA;&#x9;C675.080566,499.592773 667.804993,498.551514 659.893494,503.129547 &#xA;&#x9;C655.281006,505.798553 653.388000,504.442047 651.791443,500.268250 &#xA;&#x9;C651.378235,499.188171 650.804016,498.144989 650.156616,497.184021 &#xA;&#x9;C648.469055,494.678986 648.971436,492.956116 651.714905,491.638947 &#xA;&#x9;C662.168396,486.620209 672.984985,485.091736 684.191223,488.487457 &#xA;&#x9;C693.691406,491.366180 698.574463,497.921539 699.088074,509.190704 &#xA;&#x9;C699.527344,518.830750 699.185852,528.504822 699.279785,538.162964 &#xA;&#x9;C699.307922,541.057617 698.240967,542.663452 695.197144,542.350647 &#xA;&#x9;C690.834229,541.902344 686.251770,543.649048 682.103943,540.738770 &#xA;&#x9;C680.587769,539.675049 678.907959,541.068726 677.387756,541.626953 &#xA;&#x9;C670.508606,544.152954 663.679871,544.040466 656.939453,541.223755 &#xA;&#x9;C650.520935,538.541565 646.731323,532.748291 646.806458,525.995605 &#xA;&#x9;C646.883423,519.075256 650.707581,514.130676 657.664062,511.387482 &#xA;&#x9;C663.955688,508.906494 670.472290,509.853180 676.923279,509.652435 &#xA;&#x9;C679.551697,509.570618 682.395447,509.690155 680.651855,505.257507 &#xA;M666.926086,521.060486 &#xA;&#x9;C662.947571,524.012451 662.454956,526.247864 665.171387,529.023804 &#xA;&#x9;C669.588684,533.537842 679.513123,531.233459 681.403076,525.211182 &#xA;&#x9;C682.318848,522.293091 681.715088,520.241577 678.083923,520.311951 &#xA;&#x9;C674.607361,520.379272 671.110229,519.952820 666.926086,521.060486 &#xA;z"></path>
<path fill="#1E3A8A" d="&#xA;M842.433350,511.705200 &#xA;&#x9;C845.005737,530.328186 830.722717,544.464722 810.756592,543.217102 &#xA;&#x9;C799.593445,542.519470 790.496643,537.985168 785.511230,527.360474 &#xA;&#x9;C780.795837,517.311584 781.918274,507.610657 788.084351,498.518158 &#xA;&#x9;C794.686279,488.782898 808.568298,484.591064 822.142883,488.043793 &#xA;&#x9;C833.402222,490.907684 841.155823,499.807220 842.433350,511.705200 &#xA;M820.616272,503.797119 &#xA;&#x9;C813.716003,499.900208 807.377136,500.589172 803.143677,505.696259 &#xA;&#x9;C798.933105,510.775635 799.048523,519.454163 803.394897,524.605042 &#xA;&#x9;C809.226196,531.515747 820.374084,529.979919 824.031982,521.733887 &#xA;&#x9;C826.879883,515.313538 825.946533,509.473938 820.616272,503.797119 &#xA;z"></path>
<path fill="#1E3A8A" d="&#xA;M845.814087,537.992554 &#xA;&#x9;C850.871216,531.128052 855.628174,524.499695 860.588867,518.027466 &#xA;&#x9;C862.529663,515.495239 862.532104,513.591064 860.503601,511.026031 &#xA;&#x9;C855.859070,505.153137 851.527771,499.031281 847.117981,492.975006 &#xA;&#x9;C846.176758,491.682404 844.820190,490.547577 844.822021,488.505005 &#xA;&#x9;C857.735718,485.235413 867.717041,488.033478 872.050842,502.173676 &#xA;&#x9;C876.958496,499.246918 878.793030,495.383179 881.101379,492.106018 &#xA;&#x9;C883.487671,488.718170 886.196533,487.208679 890.287415,487.666748 &#xA;&#x9;C894.027405,488.085510 897.872498,487.168182 901.570190,488.249481 &#xA;&#x9;C902.223999,490.620941 900.543701,491.824188 899.516846,493.203430 &#xA;&#x9;C895.640259,498.410400 891.914246,503.763550 887.639832,508.629730 &#xA;&#x9;C884.169800,512.580139 883.890930,515.621216 887.452698,519.776794 &#xA;&#x9;C892.425049,525.578186 896.741760,531.943542 901.296753,538.098877 &#xA;&#x9;C902.060608,539.131104 903.176392,540.025879 903.102417,542.191589 &#xA;&#x9;C897.259216,542.191589 891.383911,542.272400 885.513367,542.139526 &#xA;&#x9;C883.874146,542.102417 883.168213,540.419739 882.288391,539.232422 &#xA;&#x9;C879.444824,535.394958 876.625366,531.539673 873.624817,527.457581 &#xA;&#x9;C870.174011,530.106506 868.373352,533.367188 866.491272,536.398010 &#xA;&#x9;C863.653687,540.967529 860.157837,543.323120 854.595215,542.438599 &#xA;&#x9;C851.349304,541.922485 847.959229,542.863159 844.747742,541.931458 &#xA;&#x9;C843.787903,540.346191 844.907410,539.372864 845.814087,537.992554 &#xA;z"></path>
<path fill="#1E3A8A" d="&#xA;M642.846680,540.230957 &#xA;&#x9;C638.052795,542.952637 633.152588,543.623779 628.098267,543.261536 &#xA;&#x9;C616.383362,542.421875 610.426208,536.124451 609.880981,523.793945 &#xA;&#x9;C609.623962,517.980957 609.715820,512.149719 609.758972,506.327637 &#xA;&#x9;C609.778381,503.715240 608.939575,502.092773 606.060486,502.318726 &#xA;&#x9;C602.458069,502.601410 601.371155,500.704651 601.590088,497.457001 &#xA;&#x9;C601.701721,495.801361 601.664368,494.127197 601.571289,492.468323 &#xA;&#x9;C601.438599,490.103607 602.097229,488.445984 604.837036,488.721802 &#xA;&#x9;C608.988708,489.139771 609.825684,486.946686 609.807739,483.309509 &#xA;&#x9;C609.769897,475.665833 609.914490,475.664978 617.346069,475.659821 &#xA;&#x9;C618.177917,475.659241 619.009766,475.660858 619.841614,475.661713 &#xA;&#x9;C627.063660,475.669098 627.306702,475.678375 627.023315,483.091949 &#xA;&#x9;C626.852905,487.550385 628.404358,488.897766 632.759583,488.724945 &#xA;&#x9;C639.693542,488.449707 642.771362,493.609924 640.095947,500.326111 &#xA;&#x9;C639.077209,502.883362 636.855530,502.220123 634.979736,502.267883 &#xA;&#x9;C627.139648,502.467560 627.115051,502.432831 627.112732,510.139343 &#xA;&#x9;C627.111267,514.795837 627.004700,519.464539 627.300781,524.105164 &#xA;&#x9;C627.569702,528.318542 630.826904,530.404541 634.218994,529.081116 &#xA;&#x9;C639.594299,526.983948 641.042419,529.622742 642.068115,533.758972 &#xA;&#x9;C642.572815,535.794250 644.128906,537.673279 642.846680,540.230957 &#xA;z"></path>
<path fill="#1E3A8A" d="&#xA;M599.018433,494.070740 &#xA;&#x9;C598.999451,502.130951 598.999451,502.130920 591.493652,503.186310 &#xA;&#x9;C585.387939,504.044830 581.577026,508.177856 581.370911,514.858215 &#xA;&#x9;C581.134888,522.508423 581.200439,530.173096 581.345581,537.827515 &#xA;&#x9;C581.409546,541.202026 580.350098,542.591797 576.758972,542.464050 &#xA;&#x9;C561.687500,541.927612 563.919678,544.759216 563.834229,529.532776 &#xA;&#x9;C563.766052,517.380676 563.967773,505.225342 563.751282,493.076752 &#xA;&#x9;C563.676697,488.890411 565.156433,487.286011 569.247192,487.662170 &#xA;&#x9;C571.392944,487.859436 573.572937,487.725433 575.736206,487.682312 &#xA;&#x9;C578.438843,487.628448 580.987061,487.727234 580.327271,492.289307 &#xA;&#x9;C584.244629,490.001373 587.260315,488.041565 590.937866,487.385498 &#xA;&#x9;C598.139709,486.100677 598.777161,486.460999 599.018433,494.070740 &#xA;z"></path>
<path fill="#1E3A8A" d="&#xA;M428.083252,573.246704 &#xA;&#x9;C428.080536,572.120850 428.020203,571.449463 428.095642,570.793701 &#xA;&#x9;C428.291016,569.095947 427.659424,566.595764 430.408264,566.718628 &#xA;&#x9;C432.756622,566.823669 432.227631,569.095337 432.255524,570.660461 &#xA;&#x9;C432.323517,574.479065 432.428375,578.305786 432.254669,582.117310 &#xA;&#x9;C432.092438,585.676208 433.772003,587.079590 437.050629,586.594971 &#xA;&#x9;C440.121338,586.141052 444.478394,587.964355 444.785461,582.204468 &#xA;&#x9;C445.135468,575.638977 447.623657,572.477661 452.581329,571.780640 &#xA;&#x9;C456.727081,571.197815 460.092926,572.583130 462.471436,576.119324 &#xA;&#x9;C464.698730,579.430725 464.190857,582.743225 462.357086,585.980469 &#xA;&#x9;C460.178467,589.826538 456.540588,591.198303 452.579590,590.160217 &#xA;&#x9;C448.868561,589.187622 445.651337,589.362915 441.830963,590.041748 &#xA;&#x9;C428.977325,592.326050 428.152802,591.294495 428.116730,578.192078 &#xA;&#x9;C428.112610,576.697449 428.097504,575.202881 428.083252,573.246704 &#xA;M453.775757,575.565491 &#xA;&#x9;C452.880371,575.959961 451.792084,576.150757 451.123138,576.784363 &#xA;&#x9;C448.310059,579.448914 448.687347,582.460083 450.965912,585.117004 &#xA;&#x9;C453.111053,587.618286 455.812988,587.138062 457.875793,584.988586 &#xA;&#x9;C460.426941,582.330261 460.361786,579.388977 457.630768,576.735413 &#xA;&#x9;C456.781158,575.909851 455.696381,575.508728 453.775757,575.565491 &#xA;z"></path>
<path fill="#1E3A8A" d="&#xA;M480.611511,572.290344 &#xA;&#x9;C482.928101,571.644897 483.963013,572.611267 484.022461,574.378540 &#xA;&#x9;C484.205902,579.833557 484.793945,585.317200 483.570282,590.727539 &#xA;&#x9;C482.729218,594.446350 480.141083,596.383850 476.517944,596.730469 &#xA;&#x9;C472.719269,597.093994 469.006927,596.813354 466.405487,592.609863 &#xA;&#x9;C470.592163,589.971924 476.403687,596.203003 479.313446,589.905029 &#xA;&#x9;C478.167450,588.685303 477.027344,589.500183 475.987396,589.614990 &#xA;&#x9;C471.755188,590.082092 468.458893,588.589417 466.341125,584.914246 &#xA;&#x9;C464.665283,582.005920 464.300629,578.926636 466.366699,575.994995 &#xA;&#x9;C468.797546,572.545715 472.203888,571.244385 476.340607,571.780762 &#xA;&#x9;C477.640778,571.949341 478.929657,572.204834 480.611511,572.290344 &#xA;M476.066071,585.586060 &#xA;&#x9;C478.172516,585.023254 479.611328,583.811707 479.820282,581.526672 &#xA;&#x9;C480.104828,578.414856 478.679321,576.250244 475.651855,575.759644 &#xA;&#x9;C472.459930,575.242432 469.922363,576.762024 469.563049,580.078491 &#xA;&#x9;C469.138763,583.994141 471.473846,585.793213 476.066071,585.586060 &#xA;z"></path>
<path fill="#1E3A8A" d="&#xA;M751.588867,587.717163 &#xA;&#x9;C749.984680,591.221619 748.528503,590.681885 747.898010,587.745972 &#xA;&#x9;C747.419006,585.515686 747.717407,583.117493 747.678406,580.793945 &#xA;&#x9;C747.632019,578.027039 746.801086,575.628479 743.610413,575.623474 &#xA;&#x9;C740.617676,575.618774 739.408875,577.663818 739.143250,580.560913 &#xA;&#x9;C738.854431,583.710754 740.008179,587.168274 737.900757,589.915344 &#xA;&#x9;C735.322144,589.918640 735.048889,588.378967 734.956665,586.866272 &#xA;&#x9;C734.835632,584.880005 734.891052,582.882629 734.880371,580.890076 &#xA;&#x9;C734.834167,572.280945 738.687744,569.392578 746.983215,572.237427 &#xA;&#x9;C749.339111,573.045349 751.189148,573.197937 753.569885,572.372925 &#xA;&#x9;C759.733643,570.236938 764.174438,573.394653 764.201111,580.011719 &#xA;&#x9;C764.214355,583.328308 765.539612,587.110291 762.480164,590.470825 &#xA;&#x9;C759.469055,587.413391 761.028076,584.092712 760.579224,581.183655 &#xA;&#x9;C759.877869,576.637756 757.187683,574.515320 754.082642,576.267944 &#xA;&#x9;C752.292053,577.278625 751.657654,579.005127 751.555054,580.864136 &#xA;&#x9;C751.436584,583.009155 751.609436,585.170227 751.588867,587.717163 &#xA;z"></path>
<path fill="#1E3A8A" d="&#xA;M883.989441,585.607971 &#xA;&#x9;C883.864685,588.644348 883.396362,590.735474 879.908936,589.935547 &#xA;&#x9;C878.856506,589.694153 877.643250,590.170471 876.501526,590.298950 &#xA;&#x9;C872.702576,590.726379 869.101135,590.427429 866.847473,586.789307 &#xA;&#x9;C864.675110,583.282471 864.442993,579.542786 866.584290,575.959961 &#xA;&#x9;C868.806458,572.241699 872.355103,571.264771 876.465698,571.847046 &#xA;&#x9;C877.263123,571.959961 878.065308,572.039551 879.032349,572.154297 &#xA;&#x9;C879.290894,571.398865 879.531189,570.812805 879.691895,570.205627 &#xA;&#x9;C880.183350,568.348022 878.869019,565.073975 882.133606,565.285156 &#xA;&#x9;C884.711548,565.451843 883.933105,568.414917 883.975281,570.252930 &#xA;&#x9;C884.089233,575.219116 884.004517,580.189941 883.989441,585.607971 &#xA;M873.788391,575.542175 &#xA;&#x9;C872.774048,576.079407 871.511047,576.393555 870.791809,577.195496 &#xA;&#x9;C868.603638,579.635132 868.671997,582.414368 870.641602,584.897461 &#xA;&#x9;C872.501404,587.242249 875.019104,587.103088 877.369202,585.646118 &#xA;&#x9;C880.114075,583.944397 880.204407,581.254395 879.230286,578.594788 &#xA;&#x9;C878.486877,576.565308 876.665710,575.639038 873.788391,575.542175 &#xA;z"></path>
<path fill="#1E3A8A" d="&#xA;M768.946045,573.737732 &#xA;&#x9;C772.888611,571.658875 776.982239,571.302368 780.932190,572.110107 &#xA;&#x9;C785.507996,573.045837 787.929260,577.597046 787.209229,582.621765 &#xA;&#x9;C786.514832,587.467468 783.239868,590.372742 778.402161,590.343628 &#xA;&#x9;C776.752502,590.333679 775.103943,590.142578 773.527710,590.039001 &#xA;&#x9;C773.202393,590.326782 772.913147,590.506897 772.724670,590.761597 &#xA;&#x9;C771.529297,592.377441 773.608826,596.183716 770.500366,595.951904 &#xA;&#x9;C767.286255,595.712097 768.787842,592.180054 768.722229,590.129456 &#xA;&#x9;C768.551941,584.809448 768.769104,579.477112 768.946045,573.737732 &#xA;M777.564270,586.578918 &#xA;&#x9;C781.651733,586.018066 783.988098,583.904480 783.024475,579.593323 &#xA;&#x9;C782.476135,577.139954 780.505371,575.603088 777.936340,575.686096 &#xA;&#x9;C775.180603,575.775269 773.208313,577.489685 772.715576,580.157166 &#xA;&#x9;C772.124512,583.357178 773.833496,585.463623 777.564270,586.578918 &#xA;z"></path>
<path fill="#1E3A8A" d="&#xA;M630.425171,582.888123 &#xA;&#x9;C628.493103,585.048462 629.234375,586.171631 632.214233,586.678040 &#xA;&#x9;C634.710144,587.102112 636.876648,584.602844 639.297302,585.917053 &#xA;&#x9;C639.862915,586.636780 639.947083,587.324036 639.475769,587.857910 &#xA;&#x9;C636.444641,591.291565 632.643127,590.901367 628.946289,589.537354 &#xA;&#x9;C624.677185,587.962341 622.868835,584.042786 623.620850,578.891052 &#xA;&#x9;C624.200012,574.923523 626.746460,572.655701 630.463196,571.931824 &#xA;&#x9;C634.587219,571.128540 638.041321,572.444153 640.139038,576.334106 &#xA;&#x9;C642.496643,580.705933 641.322266,582.720642 636.254700,582.962585 &#xA;&#x9;C634.432800,583.049683 632.600525,582.918457 630.425171,582.888123 &#xA;M635.702454,578.457397 &#xA;&#x9;C633.755005,574.559143 631.811890,574.499146 628.321106,578.448547 &#xA;&#x9;C630.636169,579.488098 632.897949,579.132141 635.702454,578.457397 &#xA;z"></path>
<path fill="#1E3A8A" d="&#xA;M709.011963,589.615417 &#xA;&#x9;C707.084900,588.622681 705.094238,588.117920 705.743896,585.391602 &#xA;&#x9;C708.512878,583.980591 710.496521,587.173584 713.157837,586.779724 &#xA;&#x9;C715.445068,586.441223 718.398682,586.974487 718.900513,584.100830 &#xA;&#x9;C719.383179,581.336609 716.458496,581.067871 714.502258,580.344971 &#xA;&#x9;C714.194092,580.231079 713.844055,580.234070 713.530273,580.131287 &#xA;&#x9;C709.892029,578.939636 705.894653,578.102600 705.699768,573.114502 &#xA;&#x9;C705.571594,569.835327 707.394470,567.811890 710.309265,566.754028 &#xA;&#x9;C714.631287,565.185547 718.596619,565.610413 722.021912,568.686340 &#xA;&#x9;C721.237244,571.381226 719.704712,570.751526 718.246948,570.452820 &#xA;&#x9;C716.635498,570.122681 715.062378,569.422668 713.354980,569.883728 &#xA;&#x9;C711.894165,570.278259 710.300171,570.621887 709.993347,572.399353 &#xA;&#x9;C709.673096,574.255249 711.085693,575.079529 712.504211,575.628601 &#xA;&#x9;C714.354065,576.344666 716.313965,576.778320 718.159363,577.504028 &#xA;&#x9;C721.144958,578.678345 723.508850,580.601624 723.081177,584.140747 &#xA;&#x9;C722.619934,587.957642 720.003784,589.907410 716.295227,590.258972 &#xA;&#x9;C713.991211,590.477417 711.643799,590.573608 709.011963,589.615417 &#xA;z"></path>
<path fill="#1E3A8A" d="&#xA;M862.221802,584.814819 &#xA;&#x9;C861.934326,587.422546 862.776428,590.252808 858.887573,590.016846 &#xA;&#x9;C854.320374,589.739685 848.684753,592.271912 846.342834,586.060303 &#xA;&#x9;C845.218140,583.077271 847.158630,580.717590 850.316101,579.607056 &#xA;&#x9;C852.481384,578.845398 854.971558,579.572449 857.241333,577.983093 &#xA;&#x9;C854.608032,573.753906 850.319519,577.825256 847.139526,575.669739 &#xA;&#x9;C848.019409,571.580261 851.372192,571.843262 854.356506,571.686829 &#xA;&#x9;C858.140320,571.488586 860.960571,573.093262 861.776550,576.915771 &#xA;&#x9;C862.289978,579.320435 862.099915,581.875244 862.221802,584.814819 &#xA;M852.268372,586.617432 &#xA;&#x9;C854.554443,587.098083 856.950745,586.871887 857.239319,584.247742 &#xA;&#x9;C857.495667,581.916748 855.059570,582.205994 853.570496,582.447876 &#xA;&#x9;C851.406128,582.799561 849.595093,583.706543 852.268372,586.617432 &#xA;z"></path>
<path fill="#1E3A8A" d="&#xA;M559.338867,575.753418 &#xA;&#x9;C557.039307,575.921570 554.875732,577.864380 553.073486,574.984192 &#xA;&#x9;C555.362366,571.118530 559.071777,571.408630 562.623718,571.969971 &#xA;&#x9;C565.999878,572.503540 567.638245,574.974182 568.028015,578.276855 &#xA;&#x9;C568.144592,579.265137 568.177063,580.265808 568.203735,581.261963 &#xA;&#x9;C568.440430,590.079712 565.842834,592.184692 557.050842,590.207825 &#xA;&#x9;C554.415955,589.615356 552.381348,588.183167 552.328125,585.213196 &#xA;&#x9;C552.278076,582.424072 553.755127,580.607910 556.422546,579.608215 &#xA;&#x9;C558.577393,578.800659 561.079590,579.606506 563.225647,578.065308 &#xA;&#x9;C562.993164,575.754456 561.440491,575.582214 559.338867,575.753418 &#xA;M559.134216,586.704895 &#xA;&#x9;C560.823486,586.873779 562.544250,586.949280 563.346191,585.056946 &#xA;&#x9;C563.822083,583.933899 563.068298,583.160461 562.055664,582.791809 &#xA;&#x9;C560.422180,582.197205 558.712708,582.121948 557.462036,583.480347 &#xA;&#x9;C556.172485,584.880920 557.145081,585.836670 559.134216,586.704895 &#xA;z"></path>
<path fill="#1E3A8A" d="&#xA;M903.121277,585.666382 &#xA;&#x9;C902.970337,588.405273 902.827454,590.447571 899.429382,589.803772 &#xA;&#x9;C897.729187,589.481750 895.851868,590.225647 894.047241,590.295837 &#xA;&#x9;C890.707397,590.425659 888.005615,589.266602 887.548401,585.611267 &#xA;&#x9;C887.064636,581.744202 889.373291,579.936523 892.956299,579.211914 &#xA;&#x9;C894.770203,578.845032 897.035828,579.791260 898.449097,577.500244 &#xA;&#x9;C895.906555,572.651367 891.332581,578.466919 888.215027,575.534851 &#xA;&#x9;C889.816467,571.259277 893.456970,571.708984 896.776733,571.759094 &#xA;&#x9;C900.028320,571.808167 902.124573,573.678528 902.624817,576.814575 &#xA;&#x9;C903.065125,579.574951 902.980286,582.419006 903.121277,585.666382 &#xA;M893.454529,582.719543 &#xA;&#x9;C892.276245,583.414429 891.041016,584.287598 892.072937,585.752319 &#xA;&#x9;C893.192322,587.341248 894.976257,586.952271 896.522400,586.394348 &#xA;&#x9;C897.620544,585.998169 898.689697,585.105835 898.274597,583.835022 &#xA;&#x9;C897.573914,581.689941 895.649536,582.525513 893.454529,582.719543 &#xA;z"></path>
<path fill="#1E3A8A" d="&#xA;M693.210754,577.543213 &#xA;&#x9;C693.097900,581.873840 694.082458,585.861511 692.559509,589.599060 &#xA;&#x9;C689.724060,589.854553 687.138428,590.174500 684.543396,590.300232 &#xA;&#x9;C681.006165,590.471619 678.191528,589.257507 677.727844,585.364380 &#xA;&#x9;C677.257080,581.411438 679.689453,579.774048 683.279236,579.160583 &#xA;&#x9;C684.965271,578.872375 687.005432,579.572510 688.457825,577.557800 &#xA;&#x9;C686.877441,574.707214 684.579956,575.247681 682.158997,576.125122 &#xA;&#x9;C680.957092,576.560730 679.464172,577.453186 678.738159,575.688171 &#xA;&#x9;C677.961365,573.799561 679.581177,573.085083 680.946838,572.442505 &#xA;&#x9;C685.961853,570.082642 690.622742,571.872742 693.210754,577.543213 &#xA;M689.004395,583.622437 &#xA;&#x9;C686.828613,581.428345 684.542664,581.953064 682.434326,583.588562 &#xA;&#x9;C681.492493,584.319214 681.844116,585.646484 682.773376,586.150391 &#xA;&#x9;C685.373535,587.560669 687.558228,587.007080 689.004395,583.622437 &#xA;z"></path>
<path fill="#1E3A8A" d="&#xA;M669.737244,578.873657 &#xA;&#x9;C668.834595,576.311523 667.318237,575.236206 665.003723,575.807434 &#xA;&#x9;C662.642517,576.390259 661.328003,577.975037 661.243042,580.457092 &#xA;&#x9;C661.163574,582.781189 661.174500,585.109680 661.041260,587.430176 &#xA;&#x9;C660.973511,588.611023 660.645874,589.846436 659.178345,589.970154 &#xA;&#x9;C657.632690,590.100342 657.136963,588.851746 657.105530,587.691406 &#xA;&#x9;C656.984070,583.209473 656.980225,578.723206 657.022156,574.239380 &#xA;&#x9;C657.027588,573.658020 657.507996,572.609985 657.849548,572.575195 &#xA;&#x9;C661.580627,572.195679 665.372864,571.052612 669.062805,572.145752 &#xA;&#x9;C672.206543,573.076904 673.853821,575.693298 674.108521,578.928406 &#xA;&#x9;C674.316528,581.571716 674.225159,584.242798 674.179260,586.900085 &#xA;&#x9;C674.156494,588.218567 674.122742,589.840515 672.343872,589.916687 &#xA;&#x9;C670.260132,590.005859 670.157349,588.225891 670.069458,586.736023 &#xA;&#x9;C669.922791,584.250977 669.898682,581.758606 669.737244,578.873657 &#xA;z"></path>
<path fill="#1E3A8A" d="&#xA;M510.851501,584.203491 &#xA;&#x9;C509.207306,590.252930 502.203247,592.674683 497.430634,589.245728 &#xA;&#x9;C496.431030,588.527527 495.547882,587.710876 496.252258,586.363220 &#xA;&#x9;C496.814423,585.287598 497.849915,585.321228 498.863129,585.607666 &#xA;&#x9;C501.271545,586.288513 503.767334,587.869507 505.978424,585.069580 &#xA;&#x9;C504.679230,582.643982 502.342194,583.271667 500.579803,582.640015 &#xA;&#x9;C498.028503,581.725647 495.907715,580.305664 495.891724,577.471985 &#xA;&#x9;C495.874451,574.417908 498.044128,572.658875 500.841370,571.992554 &#xA;&#x9;C502.420868,571.616272 504.179077,571.565247 505.781525,571.827515 &#xA;&#x9;C507.451508,572.100830 510.021332,572.270996 509.519531,574.770020 &#xA;&#x9;C509.047028,577.123291 506.893036,575.937439 505.333893,575.712830 &#xA;&#x9;C503.647278,575.469971 502.004944,575.428772 500.925385,577.502808 &#xA;&#x9;C503.532288,580.656982 509.468506,578.811340 510.851501,584.203491 &#xA;z"></path>
<path fill="#1E3A8A" d="&#xA;M599.168579,571.731445 &#xA;&#x9;C605.865845,572.429077 607.608093,574.268188 607.807678,581.689880 &#xA;&#x9;C607.882263,584.462646 609.771240,589.330566 605.704224,589.529175 &#xA;&#x9;C602.375183,589.691650 604.106140,584.938782 603.858704,582.370850 &#xA;&#x9;C603.547485,579.139954 603.756897,575.483643 599.273865,575.592896 &#xA;&#x9;C595.189636,575.692444 594.569275,579.012878 594.351746,582.400452 &#xA;&#x9;C594.191223,584.900452 595.103149,587.648499 593.190063,589.966248 &#xA;&#x9;C590.359436,587.800964 589.654541,579.638550 591.474304,572.394226 &#xA;&#x9;C593.883118,572.179932 596.317810,571.963379 599.168579,571.731445 &#xA;z"></path>
<path fill="#1E3A8A" d="&#xA;M807.627197,577.053955 &#xA;&#x9;C805.706482,574.009705 807.131287,568.136963 810.407837,566.018738 &#xA;&#x9;C813.032715,564.321777 815.879272,563.476379 817.790833,567.017944 &#xA;&#x9;C817.229919,569.637573 814.524963,568.464600 813.079102,570.162170 &#xA;&#x9;C816.565186,571.921570 819.284485,573.851318 813.760437,576.359314 &#xA;&#x9;C812.243713,577.047852 812.315674,578.840027 812.290771,580.342102 &#xA;&#x9;C812.255127,582.493042 812.288025,584.645691 812.215332,586.795044 &#xA;&#x9;C812.170776,588.109192 812.180786,589.743164 810.474976,589.911438 &#xA;&#x9;C808.404724,590.115601 808.192566,588.322571 808.098877,586.848511 &#xA;&#x9;C807.899841,583.715698 807.853455,580.573242 807.627197,577.053955 &#xA;z"></path>
<path fill="#1E3A8A" d="&#xA;M843.816895,585.506836 &#xA;&#x9;C843.524231,590.906433 839.537354,590.312622 836.213501,590.244080 &#xA;&#x9;C832.143494,590.160156 829.344910,587.833984 828.138489,583.967590 &#xA;&#x9;C826.956360,580.179138 827.732666,576.645935 830.748535,573.959900 &#xA;&#x9;C833.764221,571.274048 837.368896,571.016785 841.012695,572.471619 &#xA;&#x9;C842.655762,573.127625 844.794617,574.161133 843.668762,576.407654 &#xA;&#x9;C842.759766,578.221375 841.098328,577.035156 839.808594,576.285339 &#xA;&#x9;C837.249207,574.797302 834.959534,575.198669 833.241760,577.556885 &#xA;&#x9;C831.624207,579.777344 831.488342,582.227478 833.244568,584.473816 &#xA;&#x9;C835.010864,586.733154 837.267822,587.238281 839.874207,585.887512 &#xA;&#x9;C841.039062,585.283813 842.182556,584.467407 843.816895,585.506836 &#xA;z"></path>
<path fill="#1E3A8A" d="&#xA;M535.267639,586.458374 &#xA;&#x9;C532.941772,582.214478 533.129944,578.419250 535.868103,574.921448 &#xA;&#x9;C538.146240,572.011414 541.362854,571.292419 544.843262,571.839294 &#xA;&#x9;C546.108032,572.037964 547.374573,572.633667 548.483276,573.306885 &#xA;&#x9;C549.654907,574.018311 550.653503,575.161316 549.672668,576.610229 &#xA;&#x9;C548.862854,577.806396 547.620850,577.512390 546.585876,576.766357 &#xA;&#x9;C543.780212,574.744019 541.259277,575.146240 539.145935,577.741943 &#xA;&#x9;C537.524109,579.733765 537.224792,581.930359 538.840271,584.160522 &#xA;&#x9;C540.877625,586.973145 543.432007,587.101685 546.318420,585.660583 &#xA;&#x9;C547.559387,585.040955 549.025818,584.446167 549.743469,586.092224 &#xA;&#x9;C550.536011,587.910339 548.976257,588.924194 547.625793,589.454529 &#xA;&#x9;C543.047668,591.252197 538.839661,590.870422 535.267639,586.458374 &#xA;z"></path>
<path fill="#1E3A8A" d="&#xA;M518.258545,590.286499 &#xA;&#x9;C514.009949,588.948486 513.983826,585.672913 513.844482,582.504822 &#xA;&#x9;C513.707520,579.392456 514.296997,576.102417 511.245270,574.049072 &#xA;&#x9;C515.077637,567.293762 515.077637,567.293762 523.111206,573.571655 &#xA;&#x9;C520.722229,575.709900 517.840881,577.044617 517.851501,581.380005 &#xA;&#x9;C517.863098,586.107971 521.322693,586.147705 523.861877,587.703247 &#xA;&#x9;C523.087891,590.997253 520.677429,590.253174 518.258545,590.286499 &#xA;z"></path>
<path fill="#1E3A8A" d="&#xA;M621.248596,589.630493 &#xA;&#x9;C614.931946,590.620667 613.044312,589.044067 612.785889,583.091248 &#xA;&#x9;C612.522095,577.014404 612.522034,577.014404 609.994690,573.301941 &#xA;&#x9;C611.336914,571.574280 612.716553,569.798523 614.473572,567.536926 &#xA;&#x9;C616.322021,570.580078 619.592773,571.344360 622.090881,573.621033 &#xA;&#x9;C620.156128,575.881958 616.540771,576.051697 616.817261,579.904968 &#xA;&#x9;C617.048828,583.132629 616.229004,586.381653 620.855530,587.015930 &#xA;&#x9;C622.088379,587.184998 622.145081,588.328674 621.248596,589.630493 &#xA;z"></path>
<path fill="#1E3A8A" d="&#xA;M493.272339,565.104065 &#xA;&#x9;C497.244568,565.230469 496.083374,567.008118 494.420441,568.207275 &#xA;&#x9;C492.180115,569.822754 492.113007,571.389893 492.544281,574.047546 &#xA;&#x9;C493.253021,578.415222 492.932800,582.959778 492.916840,587.429321 &#xA;&#x9;C492.911926,588.813843 492.315552,590.166138 490.564514,589.978516 &#xA;&#x9;C489.107880,589.822449 488.835266,588.517395 488.835510,587.342773 &#xA;&#x9;C488.836700,581.383362 488.744781,575.415649 489.046570,569.469177 &#xA;&#x9;C489.150604,567.419800 491.114807,566.185242 493.272339,565.104065 &#xA;z"></path>
<path fill="#1E3A8A" d="&#xA;M649.547119,577.785950 &#xA;&#x9;C646.898804,581.692200 649.964661,586.611145 646.987305,590.091003 &#xA;&#x9;C644.440369,589.425964 644.710144,587.737854 644.688904,586.313538 &#xA;&#x9;C644.634338,582.654602 644.675232,578.993896 644.710693,575.334229 &#xA;&#x9;C644.728088,573.542664 645.102051,571.756653 647.380981,572.014343 &#xA;&#x9;C649.570984,572.261902 652.629639,570.196228 653.795349,572.787170 &#xA;&#x9;C655.213440,575.939270 650.809509,575.567505 649.547119,577.785950 &#xA;z"></path>
<path fill="#1E3A8A" d="&#xA;M794.292603,578.980286 &#xA;&#x9;C793.833679,582.984131 795.350159,586.843872 793.237122,590.000610 &#xA;&#x9;C791.496826,589.810791 790.882629,589.194824 790.871765,588.321350 &#xA;&#x9;C790.785034,581.390869 790.751221,574.459595 790.739380,567.528564 &#xA;&#x9;C790.737610,566.505127 791.049683,565.448181 792.274292,565.347839 &#xA;&#x9;C793.786011,565.224060 794.264771,566.353699 794.282349,567.591064 &#xA;&#x9;C794.333862,571.222595 794.294617,574.855347 794.292603,578.980286 &#xA;z"></path>
<path fill="#1E3A8A" d="&#xA;M803.143799,581.947144 &#xA;&#x9;C802.878906,584.999817 803.994263,587.950073 801.642090,589.956055 &#xA;&#x9;C799.442505,589.628845 799.141052,588.223389 799.106384,586.957214 &#xA;&#x9;C798.993774,582.846924 799.005127,578.731018 799.079956,574.619263 &#xA;&#x9;C799.103760,573.309937 799.364197,571.791809 801.128113,571.779724 &#xA;&#x9;C802.872559,571.767822 803.182251,573.202698 803.208801,574.566223 &#xA;&#x9;C803.253662,576.868774 803.172729,579.173706 803.143799,581.947144 &#xA;z"></path>
<path fill="#1E3A8A" d="&#xA;M581.663086,584.798340 &#xA;&#x9;C581.670593,579.202026 581.662354,574.081482 581.699890,568.961182 &#xA;&#x9;C581.708801,567.745972 582.019348,566.535889 583.535278,566.528992 &#xA;&#x9;C584.719299,566.523621 585.269348,567.457092 585.259888,568.538208 &#xA;&#x9;C585.200989,575.297607 585.106445,582.056946 584.960083,588.814941 &#xA;&#x9;C584.952637,589.160583 584.359924,589.493530 583.914978,589.964355 &#xA;&#x9;C581.103027,589.324951 581.884155,587.044128 581.663086,584.798340 &#xA;z"></path>
<path fill="#1E3A8A" d="&#xA;M820.702271,574.605591 &#xA;&#x9;C820.946106,572.763489 821.393982,571.473206 823.157227,571.705872 &#xA;&#x9;C824.300964,571.856750 824.776917,572.910889 824.800781,573.914062 &#xA;&#x9;C824.928528,579.286133 825.436951,584.708191 823.270691,591.323730 &#xA;&#x9;C819.113647,585.465698 821.511658,579.973755 820.702271,574.605591 &#xA;z"></path>
<path fill="#1E3A8A" d="&#xA;M530.333618,583.935181 &#xA;&#x9;C530.317322,585.393311 530.344727,586.395020 530.272278,587.389465 &#xA;&#x9;C530.188171,588.544312 530.175964,589.911377 528.553284,589.913391 &#xA;&#x9;C526.686584,589.915649 526.548340,588.367249 526.543030,587.056885 &#xA;&#x9;C526.526306,582.897522 526.604370,578.736877 526.712280,574.578430 &#xA;&#x9;C526.747925,573.207214 527.052124,571.687256 528.781006,571.697632 &#xA;&#x9;C530.990906,571.710938 530.745667,573.525085 530.698608,575.004822 &#xA;&#x9;C530.608887,577.829407 530.458374,580.652161 530.333618,583.935181 &#xA;z"></path>
<path fill="#1E3A8A" d="&#xA;M730.362671,576.426941 &#xA;&#x9;C729.978516,581.252686 731.314636,585.876709 728.481140,589.980957 &#xA;&#x9;C725.774414,584.024475 726.440552,578.036255 727.303223,571.672668 &#xA;&#x9;C730.548645,572.272217 730.237549,574.255737 730.362671,576.426941 &#xA;z"></path>
<path fill="#1E3A8A" d="&#xA;M344.086975,589.112915 &#xA;&#x9;C344.619354,589.252197 344.786621,589.314270 344.899750,589.429565 &#xA;&#x9;C346.888428,591.455688 346.887909,593.566284 344.847534,595.461365 &#xA;&#x9;C343.769257,596.462891 342.492126,595.873047 341.937561,594.721313 &#xA;&#x9;C340.817322,592.394714 340.665161,590.183411 344.086975,589.112915 &#xA;z"></path>
<path fill="#1E3A8A" d="&#xA;M727.441040,569.357422 &#xA;&#x9;C725.550720,567.726257 725.649963,566.313416 727.535461,565.323975 &#xA;&#x9;C728.974976,564.568481 730.253357,565.330872 730.542908,566.766113 &#xA;&#x9;C730.948486,568.776550 729.913879,569.834900 727.441040,569.357422 &#xA;z"></path>
<path fill="#1E3A8A" d="&#xA;M823.756226,569.354858 &#xA;&#x9;C821.330139,569.706299 820.149292,568.704834 820.518250,566.643066 &#xA;&#x9;C820.791016,565.118347 822.193298,564.462280 823.595398,565.173279 &#xA;&#x9;C825.535339,566.157104 825.529724,567.657532 823.756226,569.354858 &#xA;z"></path>
<path fill="#1E3A8A" d="&#xA;M528.924011,564.996948 &#xA;&#x9;C531.122681,566.147949 531.438477,567.620911 529.890381,569.083130 &#xA;&#x9;C528.922424,569.997375 527.488220,569.710693 526.824402,568.632812 &#xA;&#x9;C525.664062,566.748779 526.567566,565.516846 528.924011,564.996948 &#xA;z"></path>
</svg>