<svg xmlns="http://www.w3.org/2000/svg" viewBox="110 370 290 280">
<path fill="#1E3A8A" d="&#xA;M271.313751,540.781616 &#xA;&#x9;C267.611481,540.625671 268.824249,537.990479 268.804291,536.334351 &#xA;&#x9;C268.673737,525.503845 268.602539,514.669128 268.786743,503.840424 &#xA;&#x9;C268.846100,500.350952 267.668091,498.347839 264.505646,496.869507 &#xA;&#x9;C256.206360,492.989868 248.052689,488.799805 239.800583,484.817139 &#xA;&#x9;C238.211273,484.050079 236.674164,482.821686 234.523178,483.346344 &#xA;&#x9;C232.361450,489.515625 234.197174,495.854919 233.957153,502.106964 &#xA;&#x9;C233.716797,508.367401 233.904388,514.644226 233.904388,522.185303 &#xA;&#x9;C227.931366,519.314575 223.265137,516.341187 218.166550,514.777771 &#xA;&#x9;C208.395203,511.781616 205.280136,505.761353 206.490662,495.847076 &#xA;&#x9;C207.412872,488.294250 206.686157,480.538025 206.655792,472.872467 &#xA;&#x9;C206.648712,471.083710 207.093628,468.989929 205.043518,467.970825 &#xA;&#x9;C195.858902,463.405334 186.634613,458.919647 177.511185,454.447571 &#xA;&#x9;C175.636368,456.740417 176.251236,458.820526 176.249374,460.730194 &#xA;&#x9;C176.217621,493.392670 176.241669,526.055176 176.251602,558.717651 &#xA;&#x9;C176.253708,565.684265 176.087936,565.810913 169.151810,564.245605 &#xA;&#x9;C168.827011,564.172363 168.502441,564.097656 168.179581,564.016418 &#xA;&#x9;C158.693039,561.629883 158.694946,561.629761 158.694611,551.773804 &#xA;&#x9;C158.693359,514.611877 158.757355,477.449646 158.598160,440.288391 &#xA;&#x9;C158.579803,436.002411 160.011475,433.754028 163.846069,431.890076 &#xA;&#x9;C200.252258,414.193817 236.582672,396.341217 272.886475,378.435516 &#xA;&#x9;C275.824432,376.986450 278.226532,376.750793 281.289093,378.254639 &#xA;&#x9;C317.473877,396.023132 353.688660,413.732056 390.004852,431.229706 &#xA;&#x9;C394.708466,433.495941 396.406647,436.222076 396.383698,441.510406 &#xA;&#x9;C396.176208,489.336670 396.198669,537.164612 396.393066,584.991089 &#xA;&#x9;C396.413025,589.900818 394.840546,592.445190 390.417389,594.465027 &#xA;&#x9;C378.753754,599.791016 367.319031,605.618042 355.786194,611.231262 &#xA;&#x9;C354.176666,612.014709 352.637390,613.092224 349.840881,612.832825 &#xA;&#x9;C349.840881,597.244019 349.840881,581.726318 349.840881,565.360352 &#xA;&#x9;C341.171906,567.938477 334.567993,572.361145 327.302429,575.610474 &#xA;&#x9;C327.762878,576.102478 327.943512,576.482666 328.181976,576.523254 &#xA;&#x9;C338.319244,578.249329 338.322205,578.245667 338.327209,588.649536 &#xA;&#x9;C338.331543,597.648376 338.251831,606.648315 338.376312,615.645447 &#xA;&#x9;C338.415588,618.483154 337.531860,620.120728 334.836121,621.418884 &#xA;&#x9;C316.828644,630.091248 298.898621,638.925171 280.984070,647.788757 &#xA;&#x9;C278.703247,648.917175 276.692383,649.110229 274.373352,647.975220 &#xA;&#x9;C247.142441,634.647705 219.887039,621.370361 192.647736,608.059998 &#xA;&#x9;C192.087967,607.786499 191.643814,607.276306 190.604279,606.441956 &#xA;&#x9;C197.292999,604.499207 203.859055,605.337952 209.944977,603.657227 &#xA;&#x9;C217.643814,601.531189 224.094620,604.054688 230.781586,607.509705 &#xA;&#x9;C242.886398,613.764038 255.275208,619.468811 267.485321,625.373962 &#xA;&#x9;C269.394958,623.674866 268.685913,621.718994 268.700165,620.000732 &#xA;&#x9;C268.773163,611.169189 268.941956,602.329285 268.634674,593.507629 &#xA;&#x9;C268.486298,589.249390 269.583191,586.560913 273.869843,585.276428 &#xA;&#x9;C277.790405,584.101624 281.154480,581.400391 286.150757,580.436951 &#xA;&#x9;C286.150757,595.501709 286.150757,610.170776 286.150757,626.036743 &#xA;&#x9;C295.846100,621.219666 304.445160,617.003906 312.982605,612.666809 &#xA;&#x9;C315.184021,611.548401 314.677155,609.231812 314.684174,607.282898 &#xA;&#x9;C314.720215,597.284302 314.853699,587.282471 314.645844,577.288147 &#xA;&#x9;C314.550720,572.714355 316.135376,569.869934 320.386047,567.897888 &#xA;&#x9;C330.509552,563.201233 340.438049,558.086182 350.492462,553.237915 &#xA;&#x9;C357.043762,550.078857 359.297058,551.545105 359.320221,558.847656 &#xA;&#x9;C359.351868,568.817200 359.328125,578.786865 359.328125,590.107361 &#xA;&#x9;C365.902496,586.771179 371.620728,583.953003 377.245117,580.958557 &#xA;&#x9;C378.711151,580.178040 378.671417,578.430054 378.671326,576.907288 &#xA;&#x9;C378.668610,537.079163 378.666656,497.251068 378.643005,457.422974 &#xA;&#x9;C378.642517,456.639404 378.384735,455.855957 378.260223,455.147614 &#xA;&#x9;C376.369720,454.498993 375.133728,455.540558 373.838684,456.170013 &#xA;&#x9;C347.020935,469.205109 320.284515,482.411316 293.344788,495.188843 &#xA;&#x9;C287.869904,497.785583 285.604584,500.885376 286.127441,506.973755 &#xA;&#x9;C286.695648,513.590942 286.107483,520.299316 286.323914,526.958191 &#xA;&#x9;C286.440582,530.547119 285.306030,532.963318 282.064056,534.637024 &#xA;&#x9;C278.519318,536.467041 275.146057,538.629211 271.313751,540.781616 &#xA;M277.338196,449.906616 &#xA;&#x9;C266.178650,455.340454 255.019104,460.774323 242.749130,466.748901 &#xA;&#x9;C254.621552,472.663605 265.282959,477.990448 275.963623,483.278534 &#xA;&#x9;C277.482025,484.030334 278.877197,483.266418 280.233185,482.599182 &#xA;&#x9;C307.561127,469.151367 334.893677,455.712891 362.204620,442.230621 &#xA;&#x9;C363.481354,441.600342 365.108398,441.311310 365.713165,439.743286 &#xA;&#x9;C365.411804,438.549103 364.387146,438.199127 363.534149,437.777802 &#xA;&#x9;C354.282440,433.208405 344.976227,428.747864 335.763947,424.100891 &#xA;&#x9;C333.107849,422.761078 330.995300,423.682251 328.706635,424.802002 &#xA;&#x9;C311.812225,433.067719 294.903839,441.304749 277.338196,449.906616 &#xA;M282.523773,397.951752 &#xA;&#x9;C279.267883,395.868439 276.205780,396.083282 272.684692,397.824280 &#xA;&#x9;C246.124268,410.957275 219.470642,423.901703 192.871826,436.957367 &#xA;&#x9;C191.361130,437.698883 189.285294,438.009796 188.934357,440.503937 &#xA;&#x9;C196.101379,444.023743 203.312317,447.426636 210.381119,451.102783 &#xA;&#x9;C213.328262,452.635498 215.807938,452.620789 218.807434,451.143494 &#xA;&#x9;C245.539825,437.977997 272.342468,424.955231 299.104584,411.849915 &#xA;&#x9;C300.500244,411.166443 302.365753,410.938629 303.046661,408.346832 &#xA;&#x9;C296.478363,405.019043 289.840515,401.656036 282.523773,397.951752 &#xA;z"></path>
<path fill="#F97316" d="&#xA;M170.415436,571.560303 &#xA;&#x9;C187.781113,574.517212 204.483047,572.216064 220.816406,568.138062 &#xA;&#x9;C257.674194,558.935608 290.274902,541.433411 318.480133,515.890442 &#xA;&#x9;C324.364929,510.561127 324.303406,510.591797 318.433258,504.990540 &#xA;&#x9;C316.197906,502.857666 313.451599,501.134918 311.603088,497.195007 &#xA;&#x9;C330.914856,492.012573 349.960968,487.489349 370.485596,482.918884 &#xA;&#x9;C366.836609,502.834991 363.396942,521.608521 359.891754,540.739868 &#xA;&#x9;C354.588135,539.307007 352.224182,535.658875 349.353943,532.859863 &#xA;&#x9;C346.273987,529.856445 344.014740,530.029114 340.941467,532.907715 &#xA;&#x9;C307.543671,564.189575 268.049744,583.996521 223.660522,594.112122 &#xA;&#x9;C201.723404,599.111206 179.465897,600.582092 157.315948,595.267090 &#xA;&#x9;C141.931473,591.575562 129.002396,584.273254 123.445190,568.143188 &#xA;&#x9;C119.535683,556.795654 122.372742,545.984192 127.123116,535.699097 &#xA;&#x9;C132.281143,524.531372 140.446030,515.424500 148.963867,506.680847 &#xA;&#x9;C149.531723,506.097900 150.173935,505.516815 151.492035,505.922699 &#xA;&#x9;C151.667709,508.059570 149.903030,509.314850 148.818985,510.752838 &#xA;&#x9;C143.105667,518.331543 138.874054,526.629517 137.533676,536.051880 &#xA;&#x9;C135.423859,550.882812 143.608170,563.077209 158.878021,568.719299 &#xA;&#x9;C162.493073,570.055054 166.184448,570.966370 170.415436,571.560303 &#xA;z"></path>
<path fill="#1E3A8A" d="&#xA;M344.086975,589.112915 &#xA;&#x9;C344.619354,589.252197 344.786621,589.314270 344.899750,589.429565 &#xA;&#x9;C346.888428,591.455688 346.887909,593.566284 344.847534,595.461365 &#xA;&#x9;C343.769257,596.462891 342.492126,595.873047 341.937561,594.721313 &#xA;&#x9;C340.817322,592.394714 340.665161,590.183411 344.086975,589.112915 &#xA;z"></path>
</svg>